:version 1.10
:name ASF
:units
  mass 1
  length 1
  angle deg
:documentation
  ASF file generated by Kaydara
:root
  axis xyz
  order  tx ty tz rx ry rz
  position 0 0 0
  orientation 0 0 0
:bonedata
  begin
    id 1
    name RightUpLegDummy
    direction -0.718183 -0.695806 0.00816078
    length 4.904
    axis 0 0 0 xyz
  end
  begin
    id 2
    name RightUpLeg
    direction 3.53989e-006 -0.995788 0.0916897
    length 17.4976
    axis -3.49089 -0.000906621 0.000287158 xyz
    dof rx ry rz
  end
  begin
    id 3
    name RightLeg
    direction 0.00371093 -0.995096 -0.0988418
    length 16.5821
    axis 3.68512 0.0193738 -0.131023 xyz
    dof rx ry rz
  end
  begin
    id 4
    name RightFoot
    direction 0.000791514 -0.46099 0.887405
    length 3.77069
    axis 4.84075e-005 -0.120479 -0.188788 xyz
    dof rx ry rz
  end
  begin
    id 5
    name RightToes
    direction 0.00124746 -0.014064 0.9999
    length 3.85082
    axis 0.00048216 0.542163 -0.142577 xyz
    dof rx ry rz
  end
  begin
    id 6
    name SpineDummy
    direction 8.36599e-015 1 5.97571e-016
    length 4.6813
    axis 0 0 0 xyz
  end
  begin
    id 7
    name Spine
    direction -4.63632e-008 0.999988 0.00495137
    length 10.1015
    axis -0.00138897 0.000121419 3.25764e-006 xyz
    dof rx ry rz
  end
  begin
    id 8
    name Spine1
    direction 0 0 0
    length 0
    axis -0.00138896 0.000121452 2.39764e-006 xyz
    dof rx ry rz
  end
  begin
    id 9
    name HEadDummy
    direction -3.91456e-008 0.999999 0.00127422
    length 3.43865
    axis -0.00138896 0.000121452 2.39764e-006 xyz
  end
  begin
    id 10
    name HEad
    direction -0.0222688 0.980941 0.193023
    length 5.12695
    axis -0.00138895 0.000121452 2.39764e-006 xyz
    dof rx ry rz
  end
  begin
    id 11
    name LeftShoulder1Dummy
    direction 0.998891 -0.0402508 -0.0244456
    length 3.5433
    axis -0.00138896 0.000121452 2.39764e-006 xyz
  end
  begin
    id 12
    name LeftShoulder1
    direction 0.99951 -0.000327743 0.0313091
    length 4.05031
    axis -0.00138896 0.000121452 2.39764e-006 xyz
    dof rx ry rz
  end
  begin
    id 13
    name LeftArm
    direction 0.998561 -0.00100054 -0.0536182
    length 10.3537
    axis -23.1894 0.134784 0.96751 xyz
    dof rx ry rz
  end
  begin
    id 14
    name LeftForeArm
    direction 0.998903 0.00866434 0.046012
    length 8.70632
    axis -9.91835 -0.06569 -0.177792 xyz
    dof rx ry rz
  end
  begin
    id 15
    name LeftHand
    direction 0.992938 -0.0411636 0.11126
    length 5.32135
    axis -0.00960227 -0.00340091 0.185174 xyz
    dof rx ry rz
  end
  begin
    id 16
    name RightShoulderDummy
    direction -0.998891 -0.0402509 -0.0244414
    length 3.5433
    axis -0.00138896 0.000121452 2.39764e-006 xyz
  end
  begin
    id 17
    name RightShoulder
    direction -0.99951 -0.000327827 0.0313133
    length 4.05031
    axis 0.215806 0.000203644 -0.00680151 xyz
    dof rx ry rz
  end
  begin
    id 18
    name RightArm
    direction -0.998573 -0.000999583 -0.053403
    length 10.3947
    axis -23.2009 -0.134239 -0.9641 xyz
    dof rx ry rz
  end
  begin
    id 19
    name RightForeArm
    direction -0.998898 0.00868026 0.0461306
    length 8.68355
    axis -9.92322 0.0658061 0.178869 xyz
    dof rx ry rz
  end
  begin
    id 20
    name RightHand
    direction -0.992843 -0.0414603 0.112003
    length 5.28593
    axis -0.00960634 0.00330671 -0.185226 xyz
    dof rx ry rz
  end
  begin
    id 21
    name LeftUpLegDummy
    direction 0.718183 -0.695806 0.00816078
    length 4.904
    axis 0 0 0 xyz
  end
  begin
    id 22
    name LeftUpLeg
    direction -6.8115e-006 -0.995793 0.0916336
    length 17.4976
    axis -3.48766 0.00143441 -0.000523914 xyz
    dof rx ry rz
  end
  begin
    id 23
    name LeftLeg
    direction -0.00601357 -0.995091 -0.0987824
    length 16.5821
    axis 3.68177 -0.00654038 -0.00028478 xyz
    dof rx ry rz
  end
  begin
    id 24
    name LeftFoot
    direction -0.00417578 -0.460984 0.887399
    length 3.77069
    axis 1.87232e-006 4.66002e-005 -8.1837e-006 xyz
    dof rx ry rz
  end
  begin
    id 25
    name LeftToes
    direction 0.00818058 -0.00485161 0.999955
    length 3.85048
    axis 1.06246e-005 4.65855e-005 -8.18502e-006 xyz
    dof rx ry rz
  end
:hierarchy
  begin
    root RightUpLegDummy SpineDummy LeftUpLegDummy
    RightUpLegDummy RightUpLeg
    RightUpLeg RightLeg
    RightLeg RightFoot
    RightFoot RightToes
    SpineDummy Spine
    Spine Spine1
    Spine1 HEadDummy LeftShoulder1Dummy RightShoulderDummy
    HEadDummy HEad
    LeftShoulder1Dummy LeftShoulder1
    LeftShoulder1 LeftArm
    LeftArm LeftForeArm
    LeftForeArm LeftHand
    RightShoulderDummy RightShoulder
    RightShoulder RightArm
    RightArm RightForeArm
    RightForeArm RightHand
    LeftUpLegDummy LeftUpLeg
    LeftUpLeg LeftLeg
    LeftLeg LeftFoot
    LeftFoot LeftToes
  end

:SAMPLES-PER-SECOND 30
:FULLY-SPECIFIED
:DEGREES
18
root  12.437 39.6802 1.59154 15.585 -85.7834 -18.5911
RightUpLeg  3.23869 -10.3637 -12.8066
RightLeg  0.0412476 -10.9676 -0.968414
RightFoot  6.86452 -2.51233 15.9401
RightToes  -5.28226e-011 1.30204e-014 -6.03759e-014
Spine  4.17695 -0.96563 1.30606
Spine1  2.41939 -1.16997 1.05107
HEad  -1.06709 -8.44643 -1.17587
LeftShoulder1  2.35883 -5.15579 -20.8586
LeftArm  3.99191 12.2941 -53.8109
LeftForeArm  7.35187 -9.29086 -13.5389
LeftHand  -0.420168 0.649217 10.3021
RightShoulder  1.57999 2.68887 19.0822
RightArm  0.887117 -8.1213 54.5811
RightForeArm  25.3614 4.72684 14.9152
RightHand  -0.244898 -3.43781 -13.9555
LeftUpLeg  3.66143 13.689 17.3316
LeftLeg  1.70244 2.85765 1.86449
LeftFoot  2.99038 2.28074 -18.1925
LeftToes  -2.75829e-010 5.07641e-011 -5.51782e-011
19
root  12.4353 39.6803 1.5979 15.1605 -85.8297 -18.2063
RightUpLeg  3.27274 -10.4067 -12.8834
RightLeg  0.0486778 -10.8641 -0.952897
RightFoot  6.85204 -2.51238 15.9276
RightToes  -5.28226e-011 1.30204e-014 -6.03759e-014
Spine  4.01985 -0.948703 1.30082
Spine1  2.63004 -1.14661 1.00248
HEad  -1.31904 -7.98049 -1.64633
LeftShoulder1  2.35885 -5.16669 -20.8078
LeftArm  3.80028 12.1847 -53.9654
LeftForeArm  7.75165 -9.12693 -13.5905
LeftHand  -0.439023 0.666281 10.8058
RightShoulder  1.57531 2.6742 19.0773
RightArm  1.02901 -8.08773 54.7304
RightForeArm  25.0827 4.8037 14.9178
RightHand  -0.237723 -3.56168 -14.4348
LeftUpLeg  3.72066 13.6718 17.2977
LeftLeg  1.71392 2.89004 1.85499
LeftFoot  2.98686 2.2828 -18.231
LeftToes  -2.75829e-010 5.07641e-011 -5.51782e-011
20
root  12.4371 39.6805 1.60515 14.4303 -85.8546 -17.5471
RightUpLeg  3.31816 -10.4677 -12.9845
RightLeg  0.107225 -10.7641 -0.943838
RightFoot  6.82528 -2.51219 15.9122
RightToes  -5.28226e-011 1.30204e-014 -6.03759e-014
Spine  3.95171 -0.947157 1.31832
Spine1  2.75472 -1.12415 0.898455
HEad  -1.52753 -7.52956 -2.01523
LeftShoulder1  2.35331 -5.15991 -20.7636
LeftArm  3.74873 12.1153 -54.0506
LeftForeArm  7.8634 -9.09105 -13.6004
LeftHand  -0.43806 0.779566 11.0348
RightShoulder  1.5777 2.67236 19.1292
RightArm  1.4444 -8.16063 54.8027
RightForeArm  24.624 5.12729 14.8697
RightHand  -0.228703 -3.68939 -14.9026
LeftUpLeg  3.79976 13.6537 17.2543
LeftLeg  1.72301 2.90924 1.84194
LeftFoot  2.98963 2.28423 -18.251
LeftToes  -2.75829e-010 5.07641e-011 -5.51782e-011
21
root  12.4459 39.6806 1.60919 13.7918 -85.8175 -16.9954
RightUpLeg  3.39762 -10.5124 -13.0538
RightLeg  0.146308 -10.7404 -0.936126
RightFoot  6.81192 -2.5135 15.9215
RightToes  -5.28226e-011 1.30204e-014 -6.03759e-014
Spine  3.95853 -0.969629 1.36547
Spine1  2.81021 -1.12071 0.774943
HEad  -1.63971 -7.12702 -2.21856
LeftShoulder1  2.34818 -5.1323 -20.7928
LeftArm  3.71451 12.0636 -54.0179
LeftForeArm  7.72357 -9.14775 -13.5701
LeftHand  -0.42537 0.868469 10.9163
RightShoulder  1.58118 2.67624 19.1709
RightArm  1.80281 -8.27616 54.8667
RightForeArm  24.257 5.46618 14.8006
RightHand  -0.221736 -3.77454 -15.0629
LeftUpLeg  3.84642 13.6287 17.2204
LeftLeg  1.75213 2.87929 1.85656
LeftFoot  2.97975 2.28351 -18.2252
LeftToes  -2.75829e-010 5.07641e-011 -5.51782e-011
22
root  12.4582 39.6808 1.61013 13.4936 -85.7877 -16.7762
RightUpLeg  3.46931 -10.5352 -13.0887
RightLeg  0.161893 -10.7267 -0.929164
RightFoot  6.81587 -2.51533 15.9405
RightToes  -5.28226e-011 1.30204e-014 -6.03759e-014
Spine  3.97528 -0.968606 1.42988
Spine1  2.85465 -1.09367 0.655024
HEad  -1.64457 -6.76619 -2.34488
LeftShoulder1  2.34367 -5.07896 -20.9171
LeftArm  3.60007 11.9535 -53.8748
LeftForeArm  7.72285 -9.16116 -13.5427
LeftHand  -0.425055 0.773808 10.6941
RightShoulder  1.58527 2.68798 19.1888
RightArm  1.98334 -8.38417 54.9431
RightForeArm  24.0019 5.66123 14.7589
RightHand  -0.225982 -3.78559 -14.9666
LeftUpLeg  3.88904 13.581 17.188
LeftLeg  1.7579 2.86671 1.91265
LeftFoot  2.96939 2.28357 -18.2005
LeftToes  -2.75829e-010 5.07641e-011 -5.51782e-011
23
root  12.4658 39.6811 1.6122 13.3105 -85.8473 -16.6686
RightUpLeg  3.5078 -10.5664 -13.1428
RightLeg  0.192025 -10.611 -0.91927
RightFoot  6.82134 -2.51585 15.9404
RightToes  -5.28226e-011 1.30204e-014 -6.03759e-014
Spine  3.96504 -0.904739 1.48928
Spine1  2.91677 -0.997797 0.515001
HEad  -1.59387 -6.4534 -2.4456
LeftShoulder1  2.33663 -5.01721 -21.0397
LeftArm  3.50329 11.8178 -53.7197
LeftForeArm  7.86017 -9.14024 -13.5298
LeftHand  -0.435702 0.549762 10.4756
RightShoulder  1.59095 2.69818 19.2422
RightArm  2.09083 -8.47742 54.962
RightForeArm  23.8167 5.72431 14.7568
RightHand  -0.231875 -3.71921 -14.8154
LeftUpLeg  4.02427 13.5255 17.1543
LeftLeg  1.6611 2.93921 1.95469
LeftFoot  2.98995 2.29313 -18.2522
LeftToes  -2.75829e-010 5.07641e-011 -5.51782e-011
24
root  12.4654 39.6815 1.61328 13.1318 -85.9501 -16.5782
RightUpLeg  3.56531 -10.6051 -13.213
RightLeg  0.209372 -10.4438 -0.903316
RightFoot  6.82482 -2.51543 15.9287
RightToes  -5.28226e-011 1.30204e-014 -6.03759e-014
Spine  3.96092 -0.812803 1.53423
Spine1  2.95257 -0.868087 0.348979
HEad  -1.5097 -6.26035 -2.44804
LeftShoulder1  2.32585 -4.96924 -21.0694
LeftArm  3.54494 11.7825 -53.6432
LeftForeArm  7.79252 -9.19971 -13.5042
LeftHand  -0.435039 0.40717 10.1717
RightShoulder  1.59439 2.68541 19.3597
RightArm  2.21025 -8.56646 54.883
RightForeArm  23.7537 5.71984 14.7753
RightHand  -0.234051 -3.64659 -14.7314
LeftUpLeg  4.26335 13.5111 17.1586
LeftLeg  1.4631 3.02946 1.92812
LeftFoot  3.04202 2.31586 -18.365
LeftToes  -2.75829e-010 5.07641e-011 -5.51782e-011
25
root  12.4646 39.682 1.61078 13.2561 -85.9776 -16.7867
RightUpLeg  3.67182 -10.6034 -13.2178
RightLeg  0.161362 -10.3965 -0.893946
RightFoot  6.83468 -2.51571 15.9313
RightToes  -5.28226e-011 1.30204e-014 -6.03759e-014
Spine  4.02066 -0.757695 1.56133
Spine1  2.88306 -0.78588 0.222828
HEad  -1.375 -6.21132 -2.32573
LeftShoulder1  2.31585 -4.93663 -21.0561
LeftArm  3.69745 11.8828 -53.6221
LeftForeArm  7.4753 -9.33862 -13.4632
LeftHand  -0.417577 0.460018 9.86372
RightShoulder  1.59533 2.66403 19.4728
RightArm  2.26537 -8.66701 54.78
RightForeArm  23.8442 5.65843 14.8013
RightHand  -0.232076 -3.64214 -14.7289
LeftUpLeg  4.48286 13.5667 17.239
LeftLeg  1.25353 3.00368 1.85174
LeftFoot  3.09534 2.33417 -18.4413
LeftToes  -2.75829e-010 5.07641e-011 -5.51782e-011
26
root  12.4735 39.6827 1.6012 13.6638 -85.8784 -17.2459
RightUpLeg  3.78052 -10.5474 -13.1312
RightLeg  0.0786818 -10.5364 -0.905038
RightFoot  6.84359 -2.51669 15.9467
RightToes  -5.28226e-011 1.30204e-014 -6.03759e-014
Spine  4.15978 -0.759358 1.54219
Spine1  2.7002 -0.7889 0.222225
HEad  -1.25494 -6.19328 -2.2064
LeftShoulder1  2.31439 -4.91906 -21.0986
LeftArm  3.85794 12.0129 -53.5834
LeftForeArm  7.22994 -9.42187 -13.4481
LeftHand  -0.402833 0.622702 9.82534
RightShoulder  1.59954 2.67492 19.4972
RightArm  2.13247 -8.78674 54.7396
RightForeArm  24.0319 5.54039 14.8261
RightHand  -0.227296 -3.68386 -14.7438
LeftUpLeg  4.57507 13.6598 17.3662
LeftLeg  1.09904 2.82041 1.78053
LeftFoot  3.13354 2.33987 -18.4383
LeftToes  -2.75829e-010 5.07641e-011 -5.51782e-011
